<?xml version="1.0" encoding="utf-8"?>
<!-- Generator: Adobe Illustrator 26.0.2, SVG Export Plug-In . SVG Version: 6.00 Build 0)  -->
<svg version="1.1" id="图层_1" xmlns="http://www.w3.org/2000/svg" xmlns:xlink="http://www.w3.org/1999/xlink" x="0px" y="0px"
	 viewBox="0 0 376 409.6" style="enable-background:new 0 0 376 409.6;" xml:space="preserve">
<style type="text/css">
	.st0{fill:#FFFFFF;stroke:#000000;stroke-miterlimit:10;}
</style>
<g>
	<polygon points="0,0 376,0 375.8,375.5 68.6,375.5 68.6,409.6 51.6,398 34.6,409.6 34.6,375.5 0.2,375.5 	"/>
</g>
<path class="st0" d="M278.7,96.1c0-1.9-1-3.7-2.7-4.6s-3.7-0.9-5.3,0L194,137V39.5c0-1.8-1-3.5-2.5-4.5c-1.6-1-3.5-1-5.2-0.2
	l-84.7,42.4c-1.8,0.9-2.9,2.7-2.9,4.7v100.6c0,1.3,0.5,2.6,1.4,3.6c-0.9,1-1.4,2.2-1.4,3.5v93.5c0,1.9,1,3.7,2.7,4.6
	c0.8,0.5,1.7,0.7,2.6,0.7s1.9-0.2,2.7-0.7l76.7-45.4V336c0,1.8,0.9,3.5,2.4,4.4c0.9,0.6,1.9,0.9,2.9,0.9c0.7,0,1.4-0.1,2.1-0.4
	l84.7-37.1c1.9-0.8,3.2-2.7,3.2-4.8V193.1c0-0.6-0.1-1.2-0.3-1.7c0.2-0.6,0.3-1.1,0.3-1.7V96.1z"/>
<polygon points="211.9,142.9 264.5,111.7 264.5,174 "/>
<polygon points="112.9,87.4 179.8,53.9 179.8,139.6 112.9,168.9 "/>
<polygon points="112.9,205.2 165.5,236.3 112.9,267.5 "/>
<path d="M116.5,186.7l75.7-33.1c0.5-0.2,1-0.5,1.5-0.8l64.3,38l-72.9,36.5L116.5,186.7z"/>
<polygon points="197.6,240.9 264.5,207.4 264.5,293.1 197.6,322.4 "/>
</svg>
