<?xml version="1.0" encoding="utf-8"?>
<!-- Generator: Adobe Illustrator 26.0.2, SVG Export Plug-In . SVG Version: 6.00 Build 0)  -->
<svg version="1.1" id="图层_1" xmlns="http://www.w3.org/2000/svg" xmlns:xlink="http://www.w3.org/1999/xlink" x="0px" y="0px"
	 viewBox="0 0 376 409.6" style="enable-background:new 0 0 376 409.6;" xml:space="preserve">
<style type="text/css">
	.st0{fill:#FFFFFF;stroke:#000000;stroke-miterlimit:10;}
</style>
<g>
	<polygon points="0,0 376,0 375.8,375.5 68.6,375.5 68.6,409.6 51.6,398 34.6,409.6 34.6,375.5 0.2,375.5 	"/>
</g>
<g>
	<path class="st0" d="M188.7,344.9c-1.7,0-3.4-0.5-4.8-1.5c-2.5-1.5-4.1-4.4-4.1-7.4v-87.4l-71.3,42.2c-1.2,0.8-2.9,1.2-4.5,1.2
		c-1.6,0-3.1-0.4-4.4-1.2c-2.8-1.5-4.5-4.5-4.5-7.7v-93.5c0-1.2,0.3-2.4,0.8-3.5c-0.5-1.1-0.8-2.3-0.8-3.6V81.9
		c0-3.4,1.9-6.4,4.9-7.9l84.7-42.4c1.4-0.6,2.7-1,4.1-1c1.6,0,3.2,0.5,4.6,1.3l0.1,0.1c2.5,1.7,4.1,4.6,4.1,7.5v91.2l71.3-42.3
		c1.4-0.8,2.9-1.2,4.4-1.2c1.5,0,3,0.4,4.4,1.1c2.8,1.5,4.6,4.5,4.6,7.8v93.6c0,0.6-0.1,1.1-0.2,1.7c0.1,0.6,0.2,1.1,0.2,1.7V299
		c0,3.5-2.1,6.7-5.4,8.1l-84.7,37.1C191.1,344.7,190,344.9,188.7,344.9z M197.6,322.4l66.9-29.3v-85.7l-66.9,33.5V322.4z
		 M112.9,267.5l52.6-31.2l-52.6-31.1V267.5z M185.1,227.3l72.9-36.5l-64.3-38c-0.5,0.3-1,0.6-1.5,0.8l-75.7,33.1L185.1,227.3z
		 M264.5,174v-62.3l-52.6,31.2L264.5,174z M112.9,168.9l66.9-29.3V53.9l-66.9,33.5V168.9z"/>
</g>
</svg>
