<?xml version="1.0" encoding="utf-8"?>
<!-- Generator: Adobe Illustrator 26.0.2, SVG Export Plug-In . SVG Version: 6.00 Build 0)  -->
<svg version="1.1" id="图层_1" xmlns="http://www.w3.org/2000/svg" xmlns:xlink="http://www.w3.org/1999/xlink" x="0px" y="0px"
	 viewBox="0 0 376 409.6" style="enable-background:new 0 0 376 409.6;" xml:space="preserve">
<style type="text/css">
	.st0{fill:none;stroke:#FFFFFF;stroke-width:14;stroke-linejoin:round;stroke-miterlimit:10;}
</style>
<g>
	<polygon points="0,0 376,0 375.8,375.5 68.6,375.5 68.6,409.6 51.6,398 34.6,409.6 34.6,375.5 0.2,375.5 	"/>
</g>
<path class="st0" d="M188.8,230.9l-81.1,48v-89.3l3.1-3.4l-3.1-3.5l0-96.2L188.6,46v102.3l81.1-48.1v89.4c0,0-0.6,1.9-0.6,1.9
	l0.6,1.6v101.2l-80.9,35.4V230.9z"/>
<line class="st0" x1="188.8" y1="230.9" x2="269.1" y2="191.4"/>
<line class="st0" x1="110.8" y1="186.2" x2="188.6" y2="148.1"/>
<line class="st0" x1="110.8" y1="186.2" x2="188.8" y2="230.9"/>
<line class="st0" x1="188.6" y1="148.2" x2="269.1" y2="191.4"/>
</svg>
